<?xml version="1.0" encoding="iso-8859-1"?>
<!-- Generator: Adobe Illustrator 18.1.1, SVG Export Plug-In . SVG Version: 6.00 Build 0)  -->
<svg version="1.1" id="Capa_1" xmlns="http://www.w3.org/2000/svg" xmlns:xlink="http://www.w3.org/1999/xlink" x="0px" y="0px"
	 viewBox="0 0 179 179" style="enable-background:new 0 0 179 179;" xml:space="preserve">
<g>
	<path style="fill:#010002;" d="M101.356,156.517c-1.372,0.991-6.85,0.394-9.553,0.394c-7.065,0-12.393,0-19.494,0
		c-2.828,0-7.936,0.477-9.147-0.597c-1.354-1.187-1.378-5.889,0.8-6.772c1.76-0.692,7.214-0.191,9.744-0.191
		c6.916,0,11.009,0,18.694,0c2.554,0,7.84-0.37,8.95,0.388C102.627,150.64,102.836,155.461,101.356,156.517z M101.356,138.831
		c-1.11-0.77-6.402-0.394-8.95-0.394c-7.691,0-11.785,0-18.694,0c-2.53,0-7.984-0.507-9.744,0.197
		c-2.172,0.871-2.148,5.579-0.8,6.766c1.193,1.044,6.355,0.597,9.147,0.597c7.166,0,12.584,0,19.888,0
		c2.816,0,8.121,0.531,9.35-0.597C102.884,144.171,102.526,139.631,101.356,138.831z M109.513,112.368
		c1.748-7.327,4.404-14.374,6.963-20.281c4.183-9.66,9.81-17.411,12.93-27.668L106.72,91.06l-9.69-30.437l-27.233,54.472
		L51.789,66.411L41.413,78.596c5.12,10.185,10.263,20.341,13.408,32.579c1.522,5.943,2.112,17.304,5.77,20.884
		c3.306,3.252,13.688,2.19,21.081,2.19c3.658,0,6.838,0,10.543,0c3.688,0,7.327,0.203,9.756-0.8
		C107.771,131.062,107.783,119.6,109.513,112.368z M35.339,78.345l18.098-21.254l17.018,45.987L98.021,47.95l10.645,33.45
		l39.662-46.583l5.776,5.77V23.056h-17.531l5.645,5.639l-30.055,35.276L99.793,25.097L71.474,81.74L55.596,40.461l-30.7,37.872
		h10.442V78.345z M80.675,179c1.128,0,2.25,0,3.383,0c4.821-0.949,7.96-3.568,9.947-7.351c-7.691,0-15.383,0-23.074,0
		C72.214,175.265,76.063,178.039,80.675,179z M72.041,69.908l28.736-57.473l13.318,41.893l15.454-18.133
		c-2.44-8.658-6.689-15.77-12.083-21.278C109.901,7.19,99.572,1.354,85.842,0c-2.327,0-4.642,0-6.963,0
		C65.573,1.235,55.304,6.862,47.446,14.72c-7.274,7.274-13.348,18.951-14.315,31.821c0,2.327,0,4.642,0,6.963
		c0.173,2.112,0.483,4.105,0.871,6.015l23.086-28.474L72.041,69.908z M101.356,167.46c1.378-0.979,1.313-5.573,0.197-6.57
		c-0.996-0.889-5.913-0.597-8.753-0.597c-8.276,0-11.749,0-18.897,0c-2.739,0-7.787-0.471-9.744,0.191
		c-2.154,0.734-2.5,5.43-0.996,6.772c1.211,1.074,6.325,0.597,9.147,0.597c7.166,0,12.423,0,19.494,0
		C94.506,167.866,99.984,168.451,101.356,167.46z"/>
</g>
<g>
</g>
<g>
</g>
<g>
</g>
<g>
</g>
<g>
</g>
<g>
</g>
<g>
</g>
<g>
</g>
<g>
</g>
<g>
</g>
<g>
</g>
<g>
</g>
<g>
</g>
<g>
</g>
<g>
</g>
</svg>
