<svg xmlns="http://www.w3.org/2000/svg" viewBox="0 0 415 850" id="backgroundBoardSvg" data-name="backgroundBoard">
    <style> 
.pathLineBoard{
    fill: #2c546f;
}
    </style>

    <polygon class="pathLineBoard" points="248.16 530.42 248.16 435.98 253.33 435.98 253.33 528.29 267.1 542.06 267.1 591.32 261.94 591.32 261.94 544.2 248.16 530.42" />
    <polygon class="pathLineBoard" points="186.2 842.62 186.2 286.46 275.92 196.74 275.92 0 281.08 0 281.08 198.88 191.37 288.6 191.37 842.62 186.2 842.62" />
    <polygon class="pathLineBoard" points="117.62 842.62 117.62 647.91 164.09 601.44 164.09 278.07 254.78 187.38 254.78 57.74 259.94 57.74 259.94 189.52 169.26 280.2 169.26 603.58 122.78 650.05 122.78 842.62 117.62 842.62" />
    <polygon class="pathLineBoard" points="84.92 842.62 84.92 646.27 142.31 588.88 142.31 146.82 147.47 146.82 147.47 591.02 90.09 648.41 90.09 842.62 84.92 842.62" />
    <polygon class="pathLineBoard" points="64.09 842.62 64.09 615.75 121.48 558.37 121.48 116.3 126.64 116.3 126.64 560.5 69.25 617.89 69.25 842.62 64.09 842.62" />
    <polygon class="pathLineBoard" points="39.9 842.62 39.9 591.56 97.29 534.18 97.29 92.11 102.45 92.11 102.45 536.31 45.06 593.7 45.06 842.62 39.9 842.62" />
    <rect class="pathLineBoard" x="215.46" y="435.98" width="5.16" height="327.03" />
    <path class="pathLineBoard" d="M254.35,596.61a10.17,10.17,0,1,1,10.17,10.16A10.18,10.18,0,0,1,254.35,596.61Zm15.17,0a5,5,0,1,0-5,5A5,5,0,0,0,269.52,596.61Z" />
    <path class="pathLineBoard" d="M207.88,768a10.17,10.17,0,1,1,10.17,10.17A10.17,10.17,0,0,1,207.88,768ZM223,768a5,5,0,1,0-5,5A5,5,0,0,0,223,768Z" />
    <path class="pathLineBoard" d="M207.88,430.37a10.17,10.17,0,1,1,10.17,10.17A10.18,10.18,0,0,1,207.88,430.37Zm15.16,0a5,5,0,1,0-5,5A5,5,0,0,0,223,430.37Z" />
    <path class="pathLineBoard" d="M247.2,51.47a10.17,10.17,0,1,1,10.16,10.16A10.18,10.18,0,0,1,247.2,51.47Zm15.16,0a5,5,0,1,0-5,5A5,5,0,0,0,262.36,51.47Z" />
    <path class="pathLineBoard" d="M134.73,141.85A10.17,10.17,0,1,1,144.89,152,10.18,10.18,0,0,1,134.73,141.85Zm15.16,0a5,5,0,1,0-5,5A5,5,0,0,0,149.89,141.85Z" />
    <path class="pathLineBoard" d="M113.9,110.4a10.17,10.17,0,1,1,10.16,10.16A10.18,10.18,0,0,1,113.9,110.4Zm15.16,0a5,5,0,1,0-5,5A5,5,0,0,0,129.06,110.4Z" />
    <path class="pathLineBoard" d="M89.7,85.69A10.17,10.17,0,1,1,99.87,95.85,10.18,10.18,0,0,1,89.7,85.69Zm15.17,0a5,5,0,1,0-5,5A5,5,0,0,0,104.87,85.69Z" />
    <path class="pathLineBoard" d="M240.58,430.37a10.17,10.17,0,1,1,10.17,10.17A10.18,10.18,0,0,1,240.58,430.37Zm15.17,0a5,5,0,1,0-5,5A5,5,0,0,0,255.75,430.37Z" />
    <polygon class="pathLineBoard" points="37.54 243.81 33.89 240.15 0 274.05 0 842.62 5.16 842.62 5.16 276.18 37.54 243.81" />
    <path class="pathLineBoard" d="M39.29,248.57A10.17,10.17,0,1,1,49.46,238.4,10.18,10.18,0,0,1,39.29,248.57Zm0-5.16a5,5,0,1,0-5-5A5,5,0,0,0,39.29,243.41Z" />
    <polygon class="pathLineBoard" points="275.33 442.29 275.33 271.5 318.47 228.37 318.47 0 323.64 0 323.64 230.5 280.5 273.64 280.5 442.29 275.33 442.29" />
    <path class="pathLineBoard" d="M268.17,447.93a10.17,10.17,0,1,1,10.16,10.16A10.18,10.18,0,0,1,268.17,447.93Zm15.16,0a5,5,0,1,0-5,5A5,5,0,0,0,283.33,447.93Z" />
    <path class="pathLineBoard" d="M283.5,501.74a10.17,10.17,0,1,1,10.16-10.16A10.18,10.18,0,0,1,283.5,501.74Zm0-5.16a5,5,0,1,0-5-5A5,5,0,0,0,283.5,496.58Z" />
    <polygon class="pathLineBoard" points="396.09 422.43 396.09 0 390.93 0 390.93 420.29 361.47 449.75 321.68 449.75 286.24 485.19 289.89 488.84 323.81 454.91 363.61 454.91 396.09 422.43" />
    <path class="pathLineBoard" d="M299.48,520.8A10.17,10.17,0,1,1,309.65,531,10.18,10.18,0,0,1,299.48,520.8Zm15.17,0a5,5,0,1,0-5,5A5,5,0,0,0,314.65,520.8Z" />
    <path class="pathLineBoard" d="M321.25,505.64a10.17,10.17,0,1,1,10.16,10.16A10.18,10.18,0,0,1,321.25,505.64Zm15.17,0a5,5,0,1,0-5,5A5,5,0,0,0,336.42,505.64Z" />
    <path class="pathLineBoard" d="M342.39,490.47a10.17,10.17,0,1,1,10.16,10.16A10.17,10.17,0,0,1,342.39,490.47Zm15.17,0a5,5,0,1,0-5,5A5,5,0,0,0,357.56,490.47Z" />
    <polygon class="pathLineBoard" points="307.07 658.89 307.07 527.26 312.23 527.26 312.23 656.75 371 715.52 371 842.62 365.84 842.62 365.84 717.66 307.07 658.89" />
    <polygon class="pathLineBoard" points="328.83 643.41 328.83 511.78 334 511.78 334 641.27 392.76 700.04 392.76 842.62 387.6 842.62 387.6 702.18 328.83 643.41" />
    <polygon class="pathLineBoard" points="349.97 627.92 349.97 496.29 355.13 496.29 355.13 625.79 413.9 684.56 413.9 842.62 408.74 842.62 408.74 686.7 349.97 627.92" />
</svg>